# xmcd
#
# Track frame offsets:
#	150
#	23065
#	44885
#	60056
#	75932
#	92807
#	114035
#	130602
#	147251
#	163072
#	177875
#	195259
#
# Disc length: 2848 seconds
#
# Revision: 2
# Processed by: cddbd v1.5.2PL0 Copyright (c) Steve Scherf et al.
# Submitted via: EZCDAudioConverter 1.0.4.1
#
DISCID=890b1e0c
DTITLE=Jenny White - Runaway Train
DYEAR=1996
DGENRE=Contemporary Country
TTITLE0=Runaway Train
TTITLE1=Don't Need A Superman
TTITLE2=What About Me
TTITLE3=I Hope This Song Turns You On
TTITLE4=Time Out
TTITLE5=Our Love's Going On And On
TTITLE6=Don't Come Knocking
TTITLE7=The Rose
TTITLE8=Rodeo Romeo
TTITLE9=Burning A Hole In My Heart
TTITLE10=I Hope You'll Understand
TTITLE11=Old Heart
EXTD=
EXTT0=
EXTT1=
EXTT2=
EXTT3=
EXTT4=
EXTT5=
EXTT6=
EXTT7=
EXTT8=
EXTT9=
EXTT10=
EXTT11=
PLAYORDER=
